<?xml version="1.0"?>
<svg width="64" height="64" xmlns="http://www.w3.org/2000/svg" xmlns:svg="http://www.w3.org/2000/svg">
 <g class="layer">
  <title>Layer 1</title>
  <path d="m5.75,1.93c-1.11,-1.11 -2.92,-1.11 -4.02,0c-1.11,1.11 -1.11,2.92 0,4.02l4.02,-4.02zm52.1,60.15c1.11,1.11 2.92,1.11 4.02,0c1.11,-1.11 1.11,-2.92 0,-4.02l-4.02,4.02zm-56.12,-4.02c-1.11,1.11 -1.11,2.92 0,4.02c1.11,1.11 2.92,1.11 4.02,0l-4.02,-4.02zm60.15,-52.1c1.11,-1.11 1.11,-2.92 0,-4.02c-1.11,-1.11 -2.92,-1.11 -4.02,0l4.02,4.02zm-60.15,0l56.12,56.12l4.02,-4.02l-56.12,-56.12l-4.02,4.02zm4.02,56.12l56.12,-56.12l-4.02,-4.02l-56.12,56.12l4.02,4.02z" fill="#d6338a" id="svg_1"/>
 </g>
</svg>